# xmcd
#
# Track frame offsets:
# 150
# 8767
# 18898
# 34471
# 45516
# 58218
# 75928
# 93537
# 108765
#
# Disc length: 1633 seconds
#
#
# Revision: 0
# Processed by: cddbd v1.5.2PL0 Copyright (c) Steve Scherf et al.
# Submitted via: FreeRIP 2.944 
#
DISCID=60065f09
DTITLE=Pay No Respect - Moving on
DYEAR=2010
DGENRE=
TTITLE0=Intro - Set it off
TTITLE1=Revenge is Glory
TTITLE2=Only the Brave
TTITLE3=You Failed
TTITLE4=Game over
TTITLE5=Moving on
TTITLE6=Side by Side
TTITLE7=The Fight
TTITLE8=How it ends
EXTD=Spook Records
EXTT0=
EXTT1=
EXTT2=
EXTT3=
EXTT4=
EXTT5=
EXTT6=
EXTT7=
EXTT8=
PLAYORDER=
